<?xml version="1.0" standalone="no"?>
<!DOCTYPE svg PUBLIC "-//W3C//DTD SVG 20010904//EN"
 "http://www.w3.org/TR/2001/REC-SVG-20010904/DTD/svg10.dtd">
<svg version="1.0" xmlns="http://www.w3.org/2000/svg"
 width="48.000000pt" height="48.000000pt" viewBox="0 0 48.000000 48.000000"
 preserveAspectRatio="xMidYMid meet">

<g transform="translate(0.000000,48.000000) scale(0.100000,-0.100000)"
fill="#000000" stroke="none">
<path d="M154 431 c-50 -23 -101 -83 -115 -136 -12 -43 -6 -113 12 -146 10
-20 11 -20 24 -2 12 16 11 18 -6 21 -10 2 -19 10 -19 18 0 11 18 14 83 14 51
0 77 4 68 9 -9 6 -12 19 -8 40 l7 31 -75 0 c-60 0 -75 3 -75 15 0 9 9 15 23
15 18 0 19 2 7 10 -24 15 10 60 67 90 61 32 57 29 52 34 -2 3 -23 -3 -45 -13z
m-107 -203 c-3 -7 -5 -2 -5 12 0 14 2 19 5 13 2 -7 2 -19 0 -25z"/>
<path d="M252 440 c46 -8 128 -47 128 -61 0 -4 8 -10 17 -13 13 -5 11 1 -7 20
-34 37 -97 64 -145 63 l-40 -1 47 -8z"/>
<path d="M220 351 c0 -60 2 -69 18 -67 14 2 18 15 20 69 3 62 1 67 -18 67 -18
0 -20 -6 -20 -69z"/>
<path d="M146 395 c-18 -13 -17 -15 10 -39 16 -14 31 -26 35 -26 3 0 6 18 7
40 2 33 0 40 -15 40 -10 0 -26 -7 -37 -15z"/>
<path d="M280 369 c0 -45 -1 -45 53 0 17 14 17 15 -5 28 -39 21 -48 16 -48
-28z"/>
<path d="M325 340 c-16 -16 -24 -30 -18 -30 14 0 63 39 63 51 0 17 -16 9 -45
-21z"/>
<path d="M90 342 c0 -13 23 -32 39 -32 11 0 10 4 -4 20 -19 21 -35 26 -35 12z"/>
<path d="M410 333 c0 -13 5 -23 10 -23 6 0 10 -7 10 -15 0 -12 -14 -15 -70
-15 l-69 0 6 -31 c4 -21 1 -34 -8 -40 -9 -5 15 -9 64 -9 69 0 78 -2 75 -17 -2
-11 -11 -17 -23 -15 -16 3 -17 1 -6 -12 7 -8 10 -20 6 -26 -4 -7 -14 -1 -27
15 -10 14 -27 25 -36 25 -12 -1 -7 -9 18 -30 27 -24 32 -32 22 -42 -13 -13
-13 -13 -72 31 l-32 24 3 -54 c3 -53 3 -54 -26 -56 -17 -1 -22 1 -12 4 15 4
17 14 15 71 -2 37 -7 65 -12 64 -5 -2 -13 2 -17 10 -5 8 -9 -21 -9 -70 0 -63
-3 -83 -12 -79 -8 2 -12 18 -10 38 1 19 -2 41 -7 49 -8 12 -15 10 -40 -14 -17
-16 -33 -27 -37 -24 -3 4 12 22 33 42 47 43 28 48 -21 5 -22 -18 -40 -28 -48
-23 -7 4 -2 -5 12 -21 135 -150 389 -18 355 184 -3 22 -13 47 -20 58 -14 17
-14 17 -15 -4z m27 -105 c-3 -7 -5 -2 -5 12 0 14 2 19 5 13 2 -7 2 -19 0 -25z"/>
</g>
</svg>
