<svg width="343" height="153" viewBox="0 0 343 153" fill="none" xmlns="http://www.w3.org/2000/svg">
<path d="M82.0236 106.874C75.4587 91.7011 75.9628 73.6755 82.0236 58.3072C88.5312 41.9381 102.039 29.181 117.151 20.22C143.765 4.44911 176.727 -0.692835 206.515 7.47446C214.214 9.57955 221.776 12.5819 228.112 17.4478C234.447 22.3136 239.488 29.1925 241.012 37.0608C242.078 42.5018 241.436 48.1384 242.158 53.6369C245.068 75.493 265.461 85.6044 265.186 107.622C265.014 121.368 255.666 130.996 242.559 139.543C231.102 147.043 113.187 178.815 82.0236 106.874Z" fill="#F4F5F8"/>
<path d="M171.783 152.495C231.331 152.495 279.604 149.817 279.604 146.513C279.604 143.21 231.331 140.532 171.783 140.532C112.234 140.532 63.9609 143.21 63.9609 146.513C63.9609 149.817 112.234 152.495 171.783 152.495Z" fill="#E9ECF2"/>
<path d="M74.0308 36.0967C74.0308 36.2117 74.0308 36.3382 74.0308 36.4648C75.7722 51.511 79.0145 62.9222 82.9328 71.6992L91.3193 75.3687L84.8462 75.3112H84.6628C89.555 84.8128 95.2491 90.5875 100.336 94.0845C102.939 95.9049 105.791 97.3384 108.803 98.3406L109.261 98.4902C109.651 98.6167 110.017 98.7202 110.407 98.8123L114.669 98.4097C114.669 98.2026 114.726 97.9956 114.749 97.7885C114.772 97.5814 114.749 97.5354 114.749 97.4089C114.749 97.2823 114.749 97.0638 114.806 96.8912C116.994 76.8066 108.436 62.301 98.5945 52.5118L98.5029 52.4082C95.3217 49.2719 91.8712 46.4234 88.1916 43.8959L87.0459 48.9573L85.7971 42.2969C82.1622 39.9335 78.3286 37.8935 74.3401 36.2002L74.0308 36.0967Z" fill="#00DBAA"/>
<path d="M73.8931 36.1885L74.0764 36.4645L85.4302 53.4548L85.625 53.7539L88.7298 58.3897L88.8329 58.5392L98.6974 73.3094L98.7089 73.3324L114.794 97.4086L115.035 97.7652L115.425 98.3404L115.791 98.3059L115.413 97.7307L114.852 96.891L98.9838 73.1368L98.686 72.6997L74.2941 36.1999L74.1566 36.0044L73.8931 36.1885Z" fill="white"/>
<path d="M77.0259 52.6311L76.8994 52.8892L88.7624 58.75L88.8888 58.492L77.0259 52.6311Z" fill="white"/>
<path d="M76.4189 49.0037L76.2925 49.2617L85.5863 53.8513L85.7127 53.5932L76.4189 49.0037Z" fill="white"/>
<path d="M98.6503 52.404L98.3633 52.4087L98.7052 73.3303L98.9922 73.3255L98.6503 52.404Z" fill="white"/>
<path opacity="0.4" d="M116.856 101.481C116.856 101.481 107.519 107.704 92.0061 101.262L96.3139 98.3747L88.7981 99.7896C82.6572 96.6952 75.6799 91.6338 68.0266 83.593L69.665 82.4427L67.3736 82.8799C66.0904 81.4995 64.7729 80.0385 63.4438 78.4856C66.8117 77.7871 70.2366 77.4021 73.6749 77.3353L77.3526 81.0623L75.9205 77.3008C88.4544 77.3928 107.221 81.2809 116.856 101.481Z" fill="#00DBAA"/>
<path d="M63.5161 78.402L63.396 78.7007L117.42 100.594L117.54 100.295L63.5161 78.402Z" fill="white"/>
<path d="M77.494 84.2156L70.4756 86L70.5486 86.2894L77.567 84.505L77.494 84.2156Z" fill="white"/>
<path d="M81.189 85.6417L73.0913 88.3511L73.1855 88.6348L81.2832 85.9255L81.189 85.6417Z" fill="white"/>
<path d="M102.455 84.8356L102.661 84.5135C97.6873 81.2948 92.1198 79.1121 86.2894 78.0947L86.2207 78.4628C92.0019 79.4769 97.5221 81.6438 102.455 84.8356Z" fill="#2E4882"/>
<path d="M100.886 5.35976C101.611 5.73292 102.188 6.34101 102.525 7.08525C102.861 6.34101 103.439 5.73292 104.163 5.35976C103.439 4.9866 102.861 4.37851 102.525 3.63428C102.191 4.38059 101.613 4.98958 100.886 5.35976Z" fill="#FFE6A6"/>
<path d="M231.863 126.761C239.547 120.631 243.688 114.387 244.908 107.112L245.287 107.169C244.056 114.547 239.869 120.917 232.104 127.058L231.863 126.761Z" fill="#2E4882"/>
<path d="M228.722 132.546C238.753 125.97 248.968 117.308 248.6 102.976L248.98 102.976C249.359 117.492 239.052 126.222 228.929 132.855L228.722 132.546Z" fill="#2E4882"/>
<path d="M177.582 73.318L167.026 54.7107L170.392 40.4692H109.481C106.565 40.4692 104.202 42.8297 104.202 45.7414V106.477C104.202 109.389 106.565 111.75 109.481 111.75H170.285L163.507 94.9055L177.582 73.318Z" fill="url(#paint0_linear_538_19158)"/>
<path d="M224.57 40.4688H187.986L184.62 54.7103L195.176 73.3175L181.101 94.9047L187.879 111.749H224.57C227.485 111.749 229.848 109.388 229.848 106.477V45.7406C229.848 42.8292 227.485 40.4688 224.57 40.4688Z" fill="url(#paint1_linear_538_19158)"/>
<path d="M179.281 24.1654C178.38 24.1654 177.65 23.4355 177.65 22.5346V18.144C177.65 17.2431 178.38 16.5132 179.281 16.5132C180.181 16.5132 180.912 17.2431 180.912 18.144V22.5346C180.912 23.4355 180.181 24.1654 179.281 24.1654Z" fill="#F49B51"/>
<path d="M189.684 28.2945C188.288 28.3441 187.49 26.4777 188.532 25.5097L191.641 22.4049C192.279 21.7685 193.311 21.7695 193.947 22.4068C194.584 23.0442 194.583 24.0768 193.945 24.7128L190.836 27.8177C190.517 28.1357 190.101 28.2945 189.684 28.2945Z" fill="#F49B51"/>
<path d="M168.864 28.2946C168.447 28.2946 168.03 28.1358 167.712 27.8178L164.602 24.713C163.965 24.0769 163.964 23.0443 164.6 22.407C165.237 21.7693 166.269 21.7686 166.907 22.405L170.016 25.5098C171.058 26.4782 170.26 28.3442 168.864 28.2946Z" fill="#F49B51"/>
<path d="M179.281 135.705C178.38 135.705 177.65 134.975 177.65 134.074V129.684C177.65 128.783 178.38 128.053 179.281 128.053C180.181 128.053 180.912 128.783 180.912 129.684V134.074C180.912 134.975 180.181 135.705 179.281 135.705Z" fill="#F49B51"/>
<path d="M192.793 130.29C192.376 130.29 191.959 130.131 191.641 129.813L188.531 126.709C187.894 126.073 187.893 125.04 188.53 124.403C189.166 123.765 190.198 123.764 190.836 124.401L193.945 127.505C194.987 128.474 194.189 130.34 192.793 130.29Z" fill="#F49B51"/>
<path d="M165.754 130.29C164.359 130.34 163.561 128.473 164.602 127.505L167.712 124.401C168.349 123.764 169.382 123.765 170.018 124.403C170.654 125.04 170.653 126.073 170.016 126.709L166.906 129.813C166.588 130.131 166.171 130.29 165.754 130.29Z" fill="#F49B51"/>
<path d="M222.389 95.8549L200.051 136.274C198.248 139.534 200.607 143.533 204.332 143.533H249.009C252.735 143.533 255.093 139.535 253.291 136.274L230.953 95.8549C229.091 92.4872 224.25 92.4872 222.389 95.8549Z" fill="#F49B51"/>
<path d="M228.529 127.433L229.048 109.713H224.294L224.814 127.433H228.529Z" fill="white"/>
<path d="M226.671 130.539C225.114 130.539 223.939 131.751 223.939 133.358C223.939 134.992 225.088 136.178 226.671 136.178C228.254 136.178 229.402 134.992 229.402 133.358C229.402 131.699 228.279 130.539 226.671 130.539Z" fill="white"/>
<path opacity="0.6" d="M248.243 51.2663L250.797 51.8077L247.843 52.6456C246.287 53.0869 245.099 54.3466 244.75 55.9259L244.202 58.4025L243.655 55.9259C243.305 54.3469 242.118 53.0869 240.562 52.6456L237.608 51.8077L240.162 51.2663C241.816 50.9156 243.122 49.6481 243.522 48.0055L244.202 45.2129L244.882 48.0055C245.282 49.6481 246.589 50.9156 248.243 51.2663Z" fill="#F49B51"/>
<path opacity="0.6" d="M136.08 134.712L138.634 135.253L135.68 136.091C134.125 136.533 132.937 137.792 132.587 139.372L132.04 141.848L131.492 139.372C131.143 137.793 129.955 136.533 128.399 136.091L125.445 135.253L128 134.712C129.653 134.361 130.96 133.094 131.36 131.451L132.04 128.659L132.72 131.451C133.12 133.094 134.426 134.362 136.08 134.712Z" fill="#F49B51"/>
<path d="M113.632 61.5587V53.9463C113.632 53.1337 113.953 52.3544 114.526 51.7797C115.098 51.2051 115.874 50.8823 116.683 50.8823H131.582C132.388 50.8874 133.159 51.2124 133.727 51.7865C134.296 52.3605 134.614 53.137 134.614 53.9463V61.5587C134.614 62.368 134.296 63.1445 133.727 63.7186C133.159 64.2926 132.388 64.6176 131.582 64.6227H116.683C115.874 64.6227 115.098 64.2999 114.526 63.7253C113.953 63.1506 113.632 62.3713 113.632 61.5587ZM116.683 51.6245C116.09 51.6245 115.521 51.8611 115.102 52.2823C114.683 52.7034 114.447 53.2746 114.447 53.8702V61.4826C114.447 62.0782 114.683 62.6493 115.102 63.0705C115.521 63.4916 116.09 63.7282 116.683 63.7282H131.582C132.172 63.7436 132.744 63.5242 133.174 63.1178C133.603 62.7114 133.855 62.151 133.875 61.5587V53.9463C133.875 53.354 133.642 52.7857 133.227 52.3651C132.811 51.9445 132.247 51.7057 131.657 51.7007L116.683 51.6245Z" fill="white"/>
<path d="M212.977 64.2921C212.978 64.18 213.024 64.0731 213.104 63.9946C213.995 63.1008 214.702 62.0394 215.184 60.8711C215.667 59.7027 215.915 58.4504 215.915 57.1857C215.915 55.9209 215.667 54.6686 215.184 53.5002C214.702 52.3319 213.995 51.2705 213.104 50.3767C213.063 50.3389 213.03 50.2929 213.007 50.2417C212.985 50.1905 212.973 50.1352 212.973 50.0793C212.973 50.0233 212.985 49.968 213.007 49.9168C213.03 49.8656 213.063 49.8196 213.104 49.7818C213.182 49.7102 213.284 49.6704 213.389 49.6704C213.495 49.6704 213.597 49.7102 213.675 49.7818C214.65 50.7569 215.424 51.9157 215.951 53.1917C216.479 54.4677 216.751 55.8358 216.751 57.2175C216.751 58.5992 216.479 59.9673 215.951 61.2434C215.424 62.5194 214.65 63.6782 213.675 64.6532C213.597 64.7249 213.495 64.7646 213.389 64.7646C213.284 64.7646 213.182 64.7249 213.104 64.6532C213.056 64.6072 213.019 64.5506 212.997 64.4878C212.975 64.4251 212.968 64.3581 212.977 64.2921Z" fill="white"/>
<path d="M211.332 52.4585C211.335 52.3506 211.372 52.2464 211.438 52.161C211.475 52.1198 211.521 52.0869 211.572 52.0644C211.623 52.0419 211.678 52.0303 211.734 52.0303C211.79 52.0303 211.845 52.0419 211.896 52.0644C211.947 52.0869 211.992 52.1198 212.03 52.161C213.349 53.4978 214.09 55.3036 214.09 57.1855C214.09 59.0674 213.349 60.8731 212.03 62.2099C211.992 62.2511 211.947 62.284 211.896 62.3065C211.845 62.329 211.79 62.3406 211.734 62.3406C211.678 62.3406 211.623 62.329 211.572 62.3065C211.521 62.284 211.475 62.2511 211.438 62.2099C211.366 62.1315 211.327 62.0292 211.327 61.9231C211.327 61.8169 211.366 61.7146 211.438 61.6363C212.588 60.4468 213.232 58.8541 213.232 57.1961C213.232 55.5381 212.588 53.9453 211.438 52.7559C211.372 52.6705 211.335 52.5664 211.332 52.4585Z" fill="white"/>
<path d="M209.342 59.7246C209.343 59.6125 209.389 59.5056 209.469 59.4272C210.057 58.8306 210.387 58.0252 210.387 57.1859C210.387 56.3466 210.057 55.5411 209.469 54.9445C209.428 54.9067 209.395 54.8607 209.372 54.8095C209.35 54.7583 209.338 54.703 209.338 54.6471C209.338 54.5912 209.35 54.5359 209.372 54.4847C209.395 54.4335 209.428 54.3875 209.469 54.3497C209.547 54.278 209.649 54.2383 209.755 54.2383C209.861 54.2383 209.963 54.278 210.041 54.3497C210.414 54.721 210.71 55.1628 210.913 55.6496C211.115 56.1363 211.219 56.6585 211.219 57.1859C211.219 57.7132 211.115 58.2354 210.913 58.7222C210.71 59.2089 210.414 59.6507 210.041 60.022C209.963 60.0937 209.861 60.1335 209.755 60.1335C209.649 60.1335 209.547 60.0937 209.469 60.022C209.389 59.9436 209.343 59.8367 209.342 59.7246Z" fill="white"/>
<path d="M118.599 84.8037H107.016C106.655 84.8037 106.363 85.0973 106.363 85.4594V87.691C106.363 88.0531 106.655 88.3467 107.016 88.3467H118.599C118.96 88.3467 119.252 88.0531 119.252 87.691V85.4594C119.252 85.0973 118.96 84.8037 118.599 84.8037Z" fill="white"/>
<path d="M136.334 84.8037H124.751C124.39 84.8037 124.098 85.0973 124.098 85.4594V87.691C124.098 88.0531 124.39 88.3467 124.751 88.3467H136.334C136.694 88.3467 136.987 88.0531 136.987 87.691V85.4594C136.987 85.0973 136.694 84.8037 136.334 84.8037Z" fill="white"/>
<path d="M154.069 84.8037H142.486C142.125 84.8037 141.833 85.0973 141.833 85.4594V87.691C141.833 88.0531 142.125 88.3467 142.486 88.3467H154.069C154.43 88.3467 154.722 88.0531 154.722 87.691V85.4594C154.722 85.0973 154.43 84.8037 154.069 84.8037Z" fill="white"/>
<path d="M215.517 84.8037H203.934C203.574 84.8037 203.281 85.0973 203.281 85.4594V87.691C203.281 88.0531 203.574 88.3467 203.934 88.3467H215.517C215.878 88.3467 216.17 88.0531 216.17 87.691V85.4594C216.17 85.0973 215.878 84.8037 215.517 84.8037Z" fill="white"/>
<path d="M215.675 92.0723H200.437C200 92.0723 199.646 92.4276 199.646 92.866V94.8216C199.646 95.2599 200 95.6153 200.437 95.6153H215.675C216.111 95.6153 216.465 95.2599 216.465 94.8216V92.866C216.465 92.4276 216.111 92.0723 215.675 92.0723Z" fill="white"/>
<path d="M117.853 33.6485L117.517 33.4689C121.126 26.8828 127.155 22.2507 136.511 18.9153L136.638 19.2747C127.381 22.5849 121.406 27.1559 117.853 33.6485Z" fill="#2E4882"/>
<path d="M113.015 36.3664L112.658 36.2503C117.09 22.3749 129.681 17.4399 141.412 14.4516L141.514 14.8173C129.874 17.7879 117.401 22.6666 113.015 36.3664Z" fill="#2E4882"/>
<path d="M230.269 56.6577H229.787V61.9722H230.269V56.6577Z" fill="#2E4882"/>
<path d="M160.167 39.979H147.553V40.4612H160.167V39.979Z" fill="#2E4882"/>
<path d="M217.01 112H204.396V112.482H217.01V112Z" fill="#2E4882"/>
<path d="M125.01 39.979H112.396V40.4612H125.01V39.979Z" fill="#2E4882"/>
<defs>
<linearGradient id="paint0_linear_538_19158" x1="140.892" y1="40.4692" x2="140.892" y2="111.75" gradientUnits="userSpaceOnUse">
<stop stop-color="#8F79F0"/>
<stop offset="1" stop-color="#333CFF"/>
</linearGradient>
<linearGradient id="paint1_linear_538_19158" x1="205.474" y1="40.4687" x2="205.474" y2="111.749" gradientUnits="userSpaceOnUse">
<stop stop-color="#8F79F0"/>
<stop offset="1" stop-color="#333CFF"/>
</linearGradient>
</defs>
</svg>
